<?xml version="1.0" encoding="UTF-8" standalone="no"?>
<!DOCTYPE svg PUBLIC "-//W3C//DTD SVG 1.1//EN" "http://www.w3.org/Graphics/SVG/1.1/DTD/svg11.dtd">
<svg width="100%" height="100%" viewBox="0 0 1024 1024" version="1.1" xmlns="http://www.w3.org/2000/svg" xmlns:xlink="http://www.w3.org/1999/xlink" xml:space="preserve" xmlns:serif="http://www.serif.com/" style="fill-rule:evenodd;clip-rule:evenodd;stroke-linejoin:round;stroke-miterlimit:2;">
    <g transform="matrix(0.263203,-4.72805e-33,-4.72805e-33,-0.263203,-1173.24,1621.4)">
        <path d="M5901,5554C5951,5458 5940,5448 5861,5515C5778,5586 5772,5577 5842,5485C5891,5419 5915,5363 5900,5345C5892,5335 5878,5337 5830,5357C5762,5384 5731,5378 5782,5348C5875,5292 5882,5257 5814,5194C5771,5153 5618,5070 5587,5070C5578,5070 5569,5083 5565,5103C5556,5150 5528,5210 5519,5204C5514,5201 5510,5173 5510,5142C5510,5068 5493,5039 5398,4951C5317,4877 5303,4872 5232,4886C5181,4896 5164,4970 5196,5045C5204,5065 5210,5092 5208,5104C5205,5122 5200,5118 5170,5077C5136,5030 5136,5030 5124,5052C5117,5065 5106,5106 5100,5144C5089,5206 5089,5215 5107,5239C5118,5253 5153,5283 5185,5304C5217,5326 5239,5345 5233,5347C5227,5349 5196,5342 5164,5331C5132,5320 5102,5314 5098,5316C5076,5330 5155,5421 5235,5474C5284,5506 5257,5510 5191,5480C5111,5443 5116,5483 5200,5549C5259,5596 5253,5607 5187,5575C5121,5544 5094,5516 5060,5445C5007,5339 5003,5205 5045,5024C5053,4987 5059,4955 5057,4953C5046,4943 4937,4995 4897,5030C4849,5072 4840,5072 4840,5029C4840,4985 4890,4937 4975,4900C5016,4882 5050,4864 5050,4860C5050,4856 5038,4844 5023,4834C5007,4825 4968,4789 4935,4755C4893,4712 4852,4683 4798,4657C4755,4636 4720,4613 4720,4606C4720,4584 4764,4526 4792,4512C4806,4506 4857,4496 4904,4491C4954,4486 5000,4476 5015,4466C5051,4442 5078,4395 5090,4330C5111,4223 5150,4099 5184,4033C5228,3946 5263,3898 5351,3805C5429,3724 5446,3686 5456,3571C5465,3477 5447,3376 5390,3210C5325,3016 5292,2946 5236,2880L5189,2825L5264,2822C5306,2820 5348,2824 5359,2830C5382,2842 5420,2918 5454,3021C5486,3118 5537,3230 5549,3230C5554,3230 5562,3205 5566,3173C5574,3109 5566,2864 5555,2838C5549,2822 5554,2820 5591,2820C5686,2820 5685,2818 5684,3253C5683,3455 5685,3620 5689,3620C5692,3620 5731,3609 5775,3595C5819,3581 5860,3570 5867,3570C5873,3570 5886,3594 5895,3623C5980,3882 6194,4068 6464,4117C6566,4135 6674,4128 6800,4095C6927,4062 6983,4063 7051,4098C7080,4113 7105,4130 7107,4136C7111,4149 7051,4223 6994,4273C6832,4417 6639,4461 6316,4426C6061,4399 5858,4410 5685,4461C5559,4498 5500,4545 5454,4645C5431,4693 5434,4720 5463,4720C5488,4720 5541,4774 5566,4826C5593,4881 5593,4883 5575,4896C5565,4904 5538,4910 5517,4910C5483,4910 5479,4912 5490,4925C5497,4933 5565,4972 5642,5010C5852,5115 5902,5158 5958,5278C5995,5357 6001,5470 5971,5528C5951,5566 5904,5610 5881,5610C5876,5610 5884,5585 5901,5554ZM5490,4836C5490,4829 5478,4810 5463,4795C5439,4772 5434,4770 5432,4785C5430,4794 5438,4813 5451,4826C5476,4853 5490,4857 5490,4836Z" style="fill-rule:nonzero;"/>
        <path d="M7249,4059C7223,4055 7163,4031 7115,4006C7033,3962 7024,3960 6948,3960C6897,3960 6839,3968 6787,3982C6666,4015 6514,4012 6403,3976C6206,3912 6058,3761 6015,3579C5996,3499 5996,3375 6015,3290C6035,3198 6033,3110 6009,3000C5991,2920 5989,2898 5999,2863L6011,2820L6185,2820C6283,2820 6361,2824 6365,2829C6368,2835 6357,2854 6341,2872L6312,2906L6370,2963C6410,3003 6437,3042 6456,3086C6476,3132 6489,3149 6500,3145C6508,3143 6538,3136 6565,3129C6593,3123 6618,3115 6622,3111C6626,3108 6622,3070 6614,3027C6606,2984 6600,2921 6602,2887L6605,2825L6798,2822C6980,2820 6990,2821 6990,2838C6990,2864 6948,2908 6915,2916C6898,2920 6891,2927 6894,2937C6897,2945 6900,2953 6900,2955C6900,2957 6929,2981 6965,3009C7000,3037 7046,3083 7067,3110C7087,3137 7107,3157 7110,3152C7114,3148 7124,3111 7134,3070C7143,3028 7165,2965 7183,2930C7209,2876 7223,2861 7260,2843C7300,2822 7318,2820 7457,2820C7602,2820 7610,2821 7610,2840C7610,2869 7556,2925 7504,2950L7460,2972L7466,3153C7473,3354 7478,3372 7535,3396C7593,3420 7645,3413 7741,3370C7790,3348 7836,3330 7843,3330C7851,3330 7893,3312 7938,3289C8005,3255 8024,3250 8047,3257C8095,3273 8097,3290 8060,3399C8030,3489 8028,3505 8035,3562C8047,3655 8044,3703 8019,3759C8001,3801 8000,3815 8009,3841C8023,3883 8023,3923 8008,3938C7992,3954 7949,3953 7926,3935C7894,3911 7870,3917 7855,3953C7826,4022 7786,4025 7726,3965C7696,3935 7684,3930 7645,3930C7586,3930 7542,3949 7474,4004C7409,4057 7341,4074 7249,4059Z" style="fill-rule:nonzero;"/>
    </g>
</svg>
